<svg id="visual" viewBox="0 0 900 675" width="900" height="675" xmlns="http://www.w3.org/2000/svg" xmlns:xlink="http://www.w3.org/1999/xlink" version="1.1"><path d="M0 410L25 411.5C50 413 100 416 150 412.5C200 409 250 399 300 405.8C350 412.7 400 436.3 450 437.8C500 439.3 550 418.7 600 421.2C650 423.7 700 449.3 750 453.5C800 457.7 850 440.3 875 431.7L900 423L900 676L875 676C850 676 800 676 750 676C700 676 650 676 600 676C550 676 500 676 450 676C400 676 350 676 300 676C250 676 200 676 150 676C100 676 50 676 25 676L0 676Z" fill="#9067c6"></path><path d="M0 452L25 453.8C50 455.7 100 459.3 150 463.3C200 467.3 250 471.7 300 471.5C350 471.3 400 466.7 450 461C500 455.3 550 448.7 600 458.2C650 467.7 700 493.3 750 504.8C800 516.3 850 513.7 875 512.3L900 511L900 676L875 676C850 676 800 676 750 676C700 676 650 676 600 676C550 676 500 676 450 676C400 676 350 676 300 676C250 676 200 676 150 676C100 676 50 676 25 676L0 676Z" fill="#674f95"></path><path d="M0 574L25 576.7C50 579.3 100 584.7 150 575.8C200 567 250 544 300 544C350 544 400 567 450 567.7C500 568.3 550 546.7 600 538C650 529.3 700 533.7 750 541C800 548.3 850 558.7 875 563.8L900 569L900 676L875 676C850 676 800 676 750 676C700 676 650 676 600 676C550 676 500 676 450 676C400 676 350 676 300 676C250 676 200 676 150 676C100 676 50 676 25 676L0 676Z" fill="#433765"></path><path d="M0 643L25 630.5C50 618 100 593 150 592.7C200 592.3 250 616.7 300 616.5C350 616.3 400 591.7 450 586.5C500 581.3 550 595.7 600 608.3C650 621 700 632 750 634.5C800 637 850 631 875 628L900 625L900 676L875 676C850 676 800 676 750 676C700 676 650 676 600 676C550 676 500 676 450 676C400 676 350 676 300 676C250 676 200 676 150 676C100 676 50 676 25 676L0 676Z" fill="#242038"></path></svg>